####
#
# OBJ File Generated by Meshlab
#
####
# Object E12L.obj
#
# Vertices: 16
# Faces: 28
#
####
mtllib ./E12L.obj.mtl

vn 4.985234 0.932372 1.176150
v 0.416700 2.074800 0.096000 0.752941 0.752941 0.752941
vn 1.933235 1.636391 2.696591
v 0.152400 1.888800 0.642000 0.752941 0.752941 0.752941
vn 0.005443 -0.409580 0.013725
v -0.012000 -0.229800 -0.008100 0.752941 0.752941 0.752941
vn -3.441189 3.048027 0.846034
v -0.342600 1.985700 0.238200 0.752941 0.752941 0.752941
vn -5.027912 0.445530 -0.013322
v -0.473700 1.752300 -0.039900 0.752941 0.752941 0.752941
vn -5.118899 -1.438585 1.284880
v -0.234300 0.606600 0.062400 0.752941 0.752941 0.752941
vn 0.593677 -1.132658 -2.319736
v 0.007500 -0.025200 -0.117000 0.752941 0.752941 0.752941
vn -0.074120 0.673958 -4.923951
v -0.115800 1.778100 -0.400800 0.752941 0.752941 0.752941
vn 2.736838 1.266596 -2.747784
v 0.369000 2.018700 -0.179100 0.752941 0.752941 0.752941
vn 1.577576 2.851845 -0.335463
v 0.378900 2.195700 0.016500 0.752941 0.752941 0.752941
vn -2.184999 2.429014 -3.089616
v -0.286200 1.904100 -0.311700 0.752941 0.752941 0.752941
vn -2.541346 1.778843 2.048891
v -0.286200 1.904100 0.601800 0.752941 0.752941 0.752941
vn -4.387266 -0.719209 -3.477947
v -0.386400 1.582200 -0.225900 0.752941 0.752941 0.752941
vn -0.298252 2.797604 -0.592842
v -0.342600 1.985700 -0.100800 0.752941 0.752941 0.752941
vn -0.684333 -1.977908 5.051352
v -0.022500 1.026300 0.423900 0.752941 0.752941 0.752941
vn -0.498710 0.330445 2.812287
v -0.115800 1.778100 0.794700 0.752941 0.752941 0.752941
# 16 vertices, 0 vertices normals


usemtl material_0
vt 0.524600 0.417900
vt 0.675400 0.417900
vt 0.600000 1.000000
f 1/1/1 2/2/2 3/3/3
vt -0.064400 0.234600
vt 0.026400 0.425300
vt -0.035600 0.765400
f 4/4/4 5/5/5 6/6/6
vt 0.300000 0.911900
vt 0.226400 0.425300
vt 0.426400 0.425300
f 7/7/7 8/8/8 9/9/9
vt 0.500000 0.323800
vt 0.151300 0.331200
f 10/10/10 11/11/11 4/4/4
vt 0.964400 0.765400
vt 0.848700 0.331200
vt 0.935600 0.234600
f 6/12/6 12/13/12 4/14/4
f 4/14/4 12/13/12 10/10/10
f 7/7/7 9/9/9 1/1/1
f 10/10/10 9/9/9 11/11/11
vt 0.100000 0.500000
f 7/7/7 13/15/13 8/8/8
vt 0.064400 0.234600
f 14/16/14 5/5/5 4/4/4
vt 0.800000 1.000000
vt 0.748700 0.668800
f 3/17/3 2/2/2 15/18/15
vt 0.773600 0.425300
f 2/2/2 10/10/10 16/19/16
f 3/17/3 15/18/15 6/12/6
vt 0.000000 1.000000
f 13/15/13 3/20/3 6/6/6
f 8/8/8 11/11/11 9/9/9
f 11/11/11 8/8/8 13/15/13
f 12/13/12 6/12/6 15/18/15
f 12/13/12 16/19/16 10/10/10
f 10/10/10 2/2/2 1/1/1
f 9/9/9 10/10/10 1/1/1
f 3/3/3 7/7/7 1/1/1
f 3/20/3 13/15/13 7/7/7
f 5/5/5 11/11/11 13/15/13
f 5/5/5 13/15/13 6/6/6
f 4/4/4 11/11/11 14/16/14
f 14/16/14 11/11/11 5/5/5
f 15/18/15 2/2/2 16/19/16
f 12/13/12 15/18/15 16/19/16
# 28 faces, 20 coords texture

# End of File