####
#
# OBJ File Generated by Meshlab
#
####
# Object E14L.obj
#
# Vertices: 16
# Faces: 28
#
####

vn 0.244926 0.718612 -3.848117
v 0.315900 1.601700 -0.358200 0.752941 0.752941 0.752941
vn 1.065244 -0.980911 -4.327223
v 0.209700 0.601500 -0.154200 0.752941 0.752941 0.752941
vn -4.839912 -1.032066 -3.442629
v 0.102300 1.330800 -0.153600 0.752941 0.752941 0.752941
vn 3.522903 -1.358453 1.131941
v 0.306000 0.595800 -0.006300 0.752941 0.752941 0.752941
vn -3.479181 -1.154475 4.781148
v 0.155700 1.296000 0.185400 0.752941 0.752941 0.752941
vn -0.889617 -0.383570 0.469674
v -0.080100 0.161400 0.045300 0.752941 0.752941 0.752941
vn -2.011403 1.496154 1.022506
v -0.063300 1.764900 0.098100 0.752941 0.752941 0.752941
vn 1.713960 2.603869 1.876890
v 0.596700 1.762200 0.214500 0.752941 0.752941 0.752941
vn 1.503901 0.829348 -1.505029
v 0.621600 1.711200 -0.258300 0.752941 0.752941 0.752941
vn -2.412642 0.771137 -2.563241
v 0.018300 1.626300 -0.255300 0.752941 0.752941 0.752941
vn 0.106357 0.277179 3.719069
v 0.315900 1.601700 0.357600 0.752941 0.752941 0.752941
vn 4.735625 -2.852831 -0.864838
v 0.519900 1.443300 -0.066600 0.752941 0.752941 0.752941
vn 2.991162 -0.745115 1.263498
v 0.687600 1.625700 0.160200 0.752941 0.752941 0.752941
vn -5.882711 -0.691887 1.016493
v 0.059700 1.325400 0.037200 0.752941 0.752941 0.752941
vn -0.796491 0.196587 0.039418
v -0.122700 1.760100 0.000000 0.752941 0.752941 0.752941
vn -0.021421 -0.171487 -0.015176
v 0.007800 -0.114900 -0.050700 0.752941 0.752941 0.752941
# 16 vertices, 0 vertices normals


usemtl material_0
vt 0.226400 0.425300
vt 0.300000 0.735700
vt 0.126400 0.574700
f 1/1/1 2/2/2 3/3/3
vt 0.500000 0.735700
vt 0.824600 0.582100
vt 0.900000 0.823800
f 4/4/4 5/5/5 6/6/6
f 1/1/1 4/4/4 2/2/2
vt 0.935600 0.234600
vt 0.664400 0.234600
vt 0.351300 0.331200
f 7/7/7 8/8/8 9/9/9
vt 0.124600 0.417900
f 1/1/1 3/3/3 10/10/10
vt 0.773600 0.425300
f 7/7/7 5/5/5 11/11/11
f 11/11/11 5/5/5 4/4/4
vt 0.450000 0.500000
vt 0.573600 0.425300
f 12/12/12 9/9/9 13/13/13
vt -0.024600 0.582100
vt -0.064400 0.234600
f 10/10/10 14/14/14 7/15/7
vt 0.000000 0.264300
f 7/15/7 9/9/9 15/16/15
f 13/13/13 11/11/11 12/12/12
f 8/8/8 7/7/7 11/11/11
f 9/9/9 12/12/12 1/1/1
f 9/9/9 1/1/1 10/10/10
vt -0.100000 0.823800
f 6/17/6 14/14/14 3/3/3
f 10/10/10 3/3/3 14/14/14
f 6/17/6 3/3/3 2/2/2
vt 0.200000 1.000000
f 16/18/16 4/4/4 6/6/6
f 11/11/11 4/4/4 12/12/12
f 12/12/12 4/4/4 1/1/1
f 15/16/15 10/10/10 7/15/7
f 9/9/9 10/10/10 15/16/15
vt 0.975400 0.582100
f 5/5/5 14/19/14 6/6/6
f 7/7/7 14/19/14 5/5/5
f 16/18/16 6/17/6 2/2/2
f 16/18/16 2/2/2 4/4/4
f 8/8/8 13/13/13 9/9/9
f 13/13/13 8/8/8 11/11/11
# 28 faces, 19 coords texture

# End of File