####
#
# OBJ File Generated by Meshlab
#
####
# Object E15L.obj
#
# Vertices: 25
# Faces: 46
#
####

vn 3.486183 -0.427111 -1.203393
v 0.932700 1.853100 -0.213600 0.749020 0.749020 0.749020
vn 3.968081 -2.740260 -2.917312
v 0.502800 1.191900 -0.090600 0.749020 0.749020 0.749020
vn -0.115328 -1.213338 -5.147600
v 0.291000 1.121400 -0.215700 0.749020 0.749020 0.749020
vn -2.029985 3.028123 2.156086
v -0.068100 2.039100 0.130800 0.749020 0.749020 0.749020
vn 0.332667 0.420907 3.399776
v 0.437400 1.821300 0.476700 0.749020 0.749020 0.749020
vn 2.179544 2.985332 1.134970
v 0.865500 2.065800 0.152700 0.749020 0.749020 0.749020
vn -0.706438 -0.200348 3.703402
v 0.912300 1.113300 0.054900 0.749020 0.749020 0.749020
vn -4.545251 3.708219 0.809235
v 0.928500 1.242300 -0.199200 0.749020 0.749020 0.749020
vn -1.502043 -3.086327 -1.236640
v 0.822300 1.068600 -0.159000 0.749020 0.749020 0.749020
vn 1.296830 -2.241132 -0.262532
v 1.271700 0.975600 -0.131400 0.749020 0.749020 0.749020
vn 1.764061 2.606236 -2.186261
v 0.811800 2.035200 -0.286800 0.749020 0.749020 0.749020
vn 0.095389 0.630401 -4.150734
v 0.437400 1.821300 -0.477600 0.749020 0.749020 0.749020
vn -2.458428 0.828321 -3.022634
v 0.040800 1.854000 -0.340200 0.749020 0.749020 0.749020
vn -0.645561 -0.412706 0.269669
v -0.147300 -0.027000 -0.000900 0.749020 0.749020 0.749020
vn -5.600886 -1.067244 1.358496
v 0.095700 1.452900 0.049800 0.749020 0.749020 0.749020
vn -4.655514 -0.172636 -4.025589
v 0.161100 1.202400 -0.123300 0.749020 0.749020 0.749020
vn -0.011661 -0.278662 -0.044167
v -0.062400 -0.143700 -0.067800 0.749020 0.749020 0.749020
vn 4.448321 -2.488036 2.299282
v 0.478500 1.112100 0.059400 0.749020 0.749020 0.749020
vn 3.971990 -0.280785 -2.057398
v 1.316100 1.150200 -0.184800 0.749020 0.749020 0.749020
vn -0.171072 1.381452 -0.135340
v 1.057200 1.605600 -0.222900 0.749020 0.749020 0.749020
vn 0.609914 0.483104 1.148936
v 1.294200 1.349700 0.191100 0.749020 0.749020 0.749020
vn -0.549280 0.475283 -1.951829
v 0.997800 1.374300 -0.429300 0.749020 0.749020 0.749020
vn -2.472069 1.731443 -0.437580
v -0.147000 2.032500 0.000000 0.749020 0.749020 0.749020
vn 1.965827 -1.033609 1.112408
v 0.933000 1.853100 0.213600 0.749020 0.749020 0.749020
vn -3.748794 -1.321339 1.649960
v -0.107400 1.769100 0.138300 0.749020 0.749020 0.749020
# 25 vertices, 0 vertices normals


usemtl material_0
f 1//1 2//2 3//3
f 4//4 5//5 6//6
f 2//2 7//7 8//8
f 2//2 9//9 10//10
f 11//11 12//12 13//13
f 14//14 15//15 16//16
f 14//14 5//5 15//15
f 3//3 2//2 17//17
f 18//18 10//10 7//7
f 19//19 20//20 21//21
f 5//5 18//18 1//1
f 14//14 18//18 5//5
f 20//20 8//8 21//21
f 22//22 10//10 9//9
f 13//13 16//16 15//15
f 4//4 11//11 23//23
f 4//4 6//6 11//11
f 24//24 5//5 1//1
f 3//3 12//12 1//1
f 12//12 16//16 13//13
f 19//19 22//22 20//20
f 22//22 8//8 20//20
f 25//25 15//15 5//5
f 13//13 15//15 25//25
f 7//7 10//10 21//21
f 8//8 7//7 21//21
f 12//12 11//11 1//1
f 1//1 11//11 24//24
f 19//19 21//21 10//10
f 19//19 10//10 22//22
f 17//17 18//18 14//14
f 14//14 3//3 17//17
f 2//2 10//10 18//18
f 17//17 2//2 18//18
f 18//18 2//2 1//1
f 7//7 2//2 18//18
f 23//23 13//13 25//25
f 11//11 13//13 23//23
f 22//22 9//9 8//8
f 2//2 8//8 9//9
f 6//6 24//24 11//11
f 24//24 6//6 5//5
f 25//25 5//5 4//4
f 25//25 4//4 23//23
f 12//12 3//3 16//16
f 14//14 16//16 3//3
# 46 faces, 0 coords texture

# End of File