####
#
# OBJ File Generated by Meshlab
#
####
# Object E1L.obj
#
# Vertices: 25
# Faces: 46
#
####

vn -1.156305 3.644429 -1.983667
v -0.185400 2.054100 -0.216600 0.752941 0.752941 0.752941
vn 1.516573 1.071486 -5.023008
v 0.219300 1.668300 -0.434400 0.752941 0.752941 0.752941
vn -3.343151 1.499820 -3.049196
v -0.399300 1.756500 -0.291600 0.752941 0.752941 0.752941
vn 2.119027 2.637222 3.326734
v 0.225300 1.973400 0.301500 0.752941 0.752941 0.752941
vn -1.165078 2.506631 3.955748
v -0.124200 1.937100 0.366000 0.752941 0.752941 0.752941
vn -0.516994 -1.830580 4.289804
v -0.157500 1.475400 0.427800 0.752941 0.752941 0.752941
vn -2.365618 3.963441 1.019529
v -0.260700 2.054100 0.110400 0.752941 0.752941 0.752941
vn 1.523199 4.729090 0.726542
v 0.180000 2.081100 0.131100 0.752941 0.752941 0.752941
vn 1.273458 3.516163 -3.165832
v 0.225300 1.973400 -0.301200 0.752941 0.752941 0.752941
vn 1.576733 -1.665122 -1.325770
v 0.090300 0.938400 -0.069000 0.752941 0.752941 0.752941
vn 1.951742 -1.938331 -4.610706
v 0.225000 1.491300 -0.421800 0.752941 0.752941 0.752941
vn 4.344273 -1.767259 0.621791
v 0.505200 1.491300 0.069900 0.752941 0.752941 0.752941
vn -1.533597 -0.830997 -3.772628
v -0.157500 1.475400 -0.436200 0.752941 0.752941 0.752941
vn -0.411904 -4.155317 4.001359
v -0.048600 1.340400 0.244500 0.752941 0.752941 0.752941
vn -3.816092 -4.430715 0.307486
v -0.200700 1.370400 0.069000 0.752941 0.752941 0.752941
vn -4.698864 1.570995 0.765022
v -0.494400 1.741500 0.066900 0.752941 0.752941 0.752941
vn 2.265651 -1.637828 2.338047
v 0.408300 1.475400 0.298500 0.752941 0.752941 0.752941
vn -3.654875 -2.239938 0.623133
v -0.489600 1.479600 0.125400 0.752941 0.752941 0.752941
vn -2.227206 -1.698263 -2.457201
v -0.372300 1.491300 -0.346500 0.752941 0.752941 0.752941
vn 1.945934 -2.084982 -1.410115
v 0.408300 1.475400 -0.297600 0.752941 0.752941 0.752941
vn 4.903279 1.737795 0.132897
v 0.493500 1.756500 0.000000 0.752941 0.752941 0.752941
vn 3.759354 3.113178 -2.150654
v 0.325500 1.937100 -0.239400 0.752941 0.752941 0.752941
vn -2.617530 -1.506035 2.821275
v -0.372300 1.491300 0.345600 0.752941 0.752941 0.752941
vn -0.005121 -0.402286 0.234799
v -0.049200 -0.070200 0.029700 0.752941 0.752941 0.752941
vn -0.006936 -0.360940 -0.247587
v -0.049200 -0.068700 -0.067500 0.752941 0.752941 0.752941
# 25 vertices, 0 vertices normals


usemtl material_0
vt 0.136300 0.183500
vt 0.319800 0.468100
vt 0.100000 0.399200
f 1/1/1 2/2/2 3/3/3
vt 0.647500 0.257200
vt 0.800000 0.281900
vt 0.800000 0.600800
f 4/4/4 5/5/5 6/6/6
vt -0.063700 0.183500
vt 0.600000 0.141000
vt 0.352500 0.257200
f 7/7/7 8/8/8 9/9/9
vt 0.436300 0.816500
vt 0.321400 0.589500
vt 0.521400 0.589500
f 10/10/10 11/11/11 12/12/12
vt 0.200000 0.600800
f 10/10/10 13/13/13 11/11/11
vt 0.800000 0.751600
f 10/10/10 12/12/12 14/14/14
vt -0.052500 0.742800
f 10/10/10 15/15/15 13/13/13
vt -0.021400 0.410500
f 7/7/7 3/3/3 16/16/16
vt 0.600000 0.600800
f 14/14/14 17/17/17 6/6/6
vt -0.039500 0.597900
vt 0.121400 0.589500
f 18/18/18 19/19/19 15/15/15
vt 0.400000 0.600800
vt 0.500000 0.399200
f 12/12/12 20/20/20 21/21/21
f 17/17/17 4/4/4 6/6/6
f 13/13/13 2/2/2 11/11/11
vt 0.400000 0.281900
f 20/20/20 22/22/22 21/21/21
vt 0.878600 0.589500
vt 0.936300 0.183500
vt 0.978600 0.410500
f 23/23/23 7/24/7 16/25/16
vt 0.947500 0.742800
vt 0.960500 0.597900
f 15/26/15 23/23/23 18/27/18
f 1/1/1 3/3/3 7/7/7
f 7/7/7 9/9/9 1/1/1
f 8/8/8 21/21/21 22/22/22
f 17/17/17 21/21/21 4/4/4
f 9/9/9 2/2/2 1/1/1
f 22/22/22 20/20/20 2/2/2
vt 0.900000 0.929500
f 24/28/24 10/10/10 14/14/14
vt 0.100000 0.929500
f 25/29/25 15/15/15 10/10/10
f 24/28/24 14/14/14 15/26/15
f 14/14/14 23/23/23 15/26/15
f 15/15/15 19/19/19 13/13/13
f 2/2/2 13/13/13 19/19/19
f 14/14/14 12/12/12 17/17/17
f 21/21/21 17/17/17 12/12/12
f 7/24/7 23/23/23 5/5/5
f 8/8/8 7/24/7 5/5/5
f 6/6/6 5/5/5 23/23/23
f 14/14/14 6/6/6 23/23/23
f 3/3/3 2/2/2 19/19/19
f 19/19/19 16/16/16 3/3/3
f 25/29/25 10/10/10 24/28/24
vt -0.100000 0.929500
f 24/30/24 15/15/15 25/29/25
f 8/8/8 22/22/22 9/9/9
f 2/2/2 9/9/9 22/22/22
f 16/16/16 19/19/19 18/18/18
f 18/27/18 23/23/23 16/25/16
f 8/8/8 5/5/5 4/4/4
f 8/8/8 4/4/4 21/21/21
f 2/2/2 20/20/20 11/11/11
f 12/12/12 11/11/11 20/20/20
# 46 faces, 30 coords texture

# End of File