####
#
# OBJ File Generated by Meshlab
#
####
# Object E4L.obj
#
# Vertices: 16
# Faces: 28
#
####
mtllib ./E4L.obj.mtl

vn 2.302341 1.124032 -2.959959
v 0.425400 1.844400 -0.346200 0.752941 0.752941 0.752941
vn -0.434863 -1.201639 -5.258454
v -0.034500 1.374900 -0.400500 0.752941 0.752941 0.752941
vn -1.096852 1.536685 -4.098764
v -0.141300 1.824000 -0.434100 0.752941 0.752941 0.752941
vn -0.072847 -0.464028 -0.005044
v -0.011100 -0.234000 0.000000 0.752941 0.752941 0.752941
vn 1.809336 -0.910664 5.168971
v 0.214200 1.385400 0.360900 0.752941 0.752941 0.752941
vn -1.026006 1.670155 3.706864
v -0.143100 1.829400 0.402600 0.752941 0.752941 0.752941
vn -0.111366 4.814534 0.050937
v -0.001200 2.094900 -0.028200 0.752941 0.752941 0.752941
vn -4.891552 -0.450871 1.756693
v -0.392400 1.494300 0.129900 0.752941 0.752941 0.752941
vn -4.885300 -0.863246 -2.553182
v -0.349800 1.385400 -0.178800 0.752941 0.752941 0.752941
vn 3.026916 2.052130 -0.709423
v 0.497700 1.933800 -0.166200 0.752941 0.752941 0.752941
vn 4.608944 -1.426718 -2.679772
v 0.374700 1.374900 -0.184800 0.752941 0.752941 0.752941
vn 5.364695 -1.131841 2.149181
v 0.374700 1.374900 0.184800 0.752941 0.752941 0.752941
vn 1.346493 -1.018106 -0.117102
v 0.167400 -0.050400 0.000000 0.752941 0.752941 0.752941
vn -2.833961 2.249742 1.607482
v -0.352800 1.931700 0.191400 0.752941 0.752941 0.752941
vn 2.479971 1.572419 2.279474
v 0.427500 1.863600 0.277800 0.752941 0.752941 0.752941
vn -3.004990 1.967164 -1.820439
v -0.351900 1.907100 -0.256800 0.752941 0.752941 0.752941
# 16 vertices, 0 vertices normals


usemtl material_0
vt 0.400000 0.264300
vt 0.224600 0.582100
vt 0.200000 0.264300
f 1/1/1 2/2/2 3/3/3
vt 0.600000 1.000000
vt 0.673600 0.574700
vt 0.800000 0.264300
f 4/4/4 5/5/5 6/6/6
vt -0.100000 0.000000
f 7/7/7 1/1/1 3/3/3
vt 0.000000 1.000000
vt -0.050000 0.500000
vt 0.073600 0.574700
f 4/8/4 8/9/8 9/10/9
vt 0.300000 0.000000
vt 0.464400 0.234600
f 7/11/7 10/12/10 1/1/1
vt 0.424600 0.582100
vt 0.575400 0.582100
vt 0.500000 0.911900
f 11/13/11 12/14/12 13/15/13
f 2/2/2 4/8/4 9/10/9
f 4/8/4 2/2/2 11/13/11
vt 0.950000 0.500000
f 4/4/4 6/6/6 8/16/8
vt 0.935600 0.234600
vt 0.600000 0.264300
f 14/17/14 6/6/6 15/18/15
f 13/15/13 12/14/12 5/5/5
f 5/5/5 15/18/15 6/6/6
f 7/11/7 14/17/14 15/18/15
vt 0.064400 0.234600
vt -0.064400 0.234600
f 7/7/7 16/19/16 14/20/14
f 3/3/3 2/2/2 9/10/9
f 16/19/16 9/10/9 14/20/14
f 6/6/6 14/17/14 8/16/8
f 14/20/14 9/10/9 8/9/8
f 11/13/11 10/12/10 12/14/12
f 7/11/7 15/18/15 10/12/10
f 9/10/9 16/19/16 3/3/3
f 7/7/7 3/3/3 16/19/16
f 4/8/4 11/13/11 13/15/13
f 4/4/4 13/15/13 5/5/5
f 11/13/11 2/2/2 1/1/1
f 1/1/1 10/12/10 11/13/11
f 15/18/15 5/5/5 12/14/12
f 12/14/12 10/12/10 15/18/15
# 28 faces, 20 coords texture

# End of File