####
#
# OBJ File Generated by Meshlab
#
####
# Object E5L.obj
#
# Vertices: 16
# Faces: 28
#
####

vn 1.052848 -1.417786 -5.527579
v 0.928200 1.219500 -0.463500 0.752941 0.752941 0.752941
vn -0.461307 -0.938801 -0.555108
v 0.137700 -0.054900 -0.125700 0.752941 0.752941 0.752941
vn -1.352863 1.507904 -3.839638
v 0.660900 1.724700 -0.500100 0.752941 0.752941 0.752941
vn -1.077232 1.723562 4.004386
v 0.658800 1.731300 0.463800 0.752941 0.752941 0.752941
vn -0.458679 -0.946122 0.558946
v 0.137700 -0.054900 0.125700 0.752941 0.752941 0.752941
vn 2.210008 -1.562143 4.336444
v 1.070700 1.219500 0.415800 0.752941 0.752941 0.752941
vn 4.790076 -2.192176 0.702854
v 1.297800 1.219500 0.078600 0.752941 0.752941 0.752941
vn -0.096058 4.900358 -0.076774
v 0.822600 2.037300 -0.032700 0.752941 0.752941 0.752941
vn 2.529176 1.488852 2.139807
v 1.316400 1.770600 0.319800 0.752941 0.752941 0.752941
vn 2.446114 0.960414 -0.491510
v 1.397400 1.851300 -0.191700 0.752941 0.752941 0.752941
vn 2.430759 1.107244 -2.514973
v 1.314000 1.748400 -0.399000 0.752941 0.752941 0.752941
vn -5.571229 0.611598 1.073949
v 0.371700 1.344900 0.149700 0.752941 0.752941 0.752941
vn 3.903453 -2.371223 -3.069768
v 1.176900 1.207500 -0.329400 0.752941 0.752941 0.752941
vn -2.716939 1.343560 -1.866271
v 0.418500 1.820700 -0.295800 0.752941 0.752941 0.752941
vn -2.986375 2.330719 1.662999
v 0.417600 1.849200 0.220500 0.752941 0.752941 0.752941
vn 0.000000 0.000000 0.000000
v -0.153300 -0.284400 0.000000 0.752941 0.752941 0.752941
# 16 vertices, 0 vertices normals


usemtl material_0
vt 0.273600 0.574700
vt 0.300000 0.911900
vt 0.200000 0.264300
f 1/1/1 2/2/2 3/3/3
vt 0.800000 0.264300
vt 0.700000 0.911900
vt 0.673600 0.574700
f 4/4/4 5/5/5 6/6/6
vt 0.526400 0.574700
f 5/5/5 7/7/7 6/6/6
vt 0.500000 0.000000
vt 0.600000 0.264300
vt 0.464400 0.234600
f 8/8/8 9/9/9 10/10/10
vt 0.400000 0.264300
f 8/8/8 11/11/11 3/3/3
vt -0.050000 0.500000
f 2/2/2 12/12/12 3/3/3
f 7/7/7 11/11/11 9/9/9
f 11/11/11 1/1/1 3/3/3
f 8/8/8 4/4/4 9/9/9
vt 0.950000 0.500000
f 4/4/4 12/13/12 5/5/5
f 6/6/6 9/9/9 4/4/4
f 9/9/9 6/6/6 7/7/7
vt 0.375400 0.582100
f 7/7/7 13/14/13 11/11/11
f 2/2/2 13/14/13 7/7/7
f 5/5/5 2/2/2 7/7/7
vt -0.100000 0.823800
f 5/15/5 12/12/12 2/2/2
vt -0.100000 0.000000
vt 0.064400 0.234600
vt -0.064400 0.234600
f 8/16/8 14/17/14 15/18/15
vt 0.935600 0.234600
f 8/8/8 15/19/15 4/4/4
f 14/17/14 3/3/3 12/12/12
f 8/8/8 3/3/3 14/17/14
f 13/14/13 1/1/1 11/11/11
f 2/2/2 1/1/1 13/14/13
f 14/17/14 12/12/12 15/18/15
f 12/13/12 4/4/4 15/19/15
vt 0.200000 1.000000
f 16/20/16 5/15/5 2/2/2
vt 0.400000 1.000000
f 16/21/16 2/2/2 5/5/5
f 9/9/9 11/11/11 10/10/10
f 8/8/8 10/10/10 11/11/11
# 28 faces, 21 coords texture

# End of File