####
#
# OBJ File Generated by Meshlab
#
####
# Object E6L.obj
#
# Vertices: 16
# Faces: 28
#
####

vn -0.194483 -0.196917 -0.006329
v -0.098400 -0.227700 0.000000 0.752941 0.752941 0.752941
vn -3.513163 -0.375237 -4.357712
v 0.357300 0.816000 -0.232800 0.752941 0.752941 0.752941
vn 1.278584 -0.892537 -4.978580
v 0.612900 1.054800 -0.321900 0.752941 0.752941 0.752941
vn -0.169130 -1.059450 3.336800
v 0.103800 -0.068400 0.087300 0.752941 0.752941 0.752941
vn 1.277559 -0.511621 4.321685
v 0.612900 1.054800 0.321600 0.752941 0.752941 0.752941
vn -4.952306 -0.165457 1.930144
v 0.254700 0.816000 0.091800 0.752941 0.752941 0.752941
vn 2.327144 -2.515978 -0.790453
v 0.190800 -0.067200 0.000000 0.752941 0.752941 0.752941
vn 3.788936 -1.524579 0.171962
v 0.843600 0.854100 0.000000 0.752941 0.752941 0.752941
vn 1.975222 2.146043 -2.297064
v 0.630900 1.849800 -0.276900 0.752941 0.752941 0.752941
vn 4.907653 1.301175 1.476270
v 0.741300 1.695900 0.102600 0.752941 0.752941 0.752941
vn 4.495231 -0.621236 -2.406284
v 0.827400 1.044000 -0.147900 0.752941 0.752941 0.752941
vn -4.139986 -1.708074 -4.075126
v 0.234900 1.253400 -0.190500 0.752941 0.752941 0.752941
vn -0.498276 5.302927 -0.187261
v 0.165300 1.991400 -0.022500 0.752941 0.752941 0.752941
vn 1.668790 2.264802 2.344876
v 0.621300 1.864800 0.222300 0.752941 0.752941 0.752941
vn -1.913628 1.134103 1.198552
v -0.039600 1.915500 0.153300 0.752941 0.752941 0.752941
vn -1.845884 1.141638 -2.231534
v 0.057000 1.859400 -0.308100 0.752941 0.752941 0.752941
# 16 vertices, 0 vertices normals


usemtl material_0
vt 0.400000 1.000000
vt 0.148700 0.668800
vt 0.273600 0.574700
f 1/1/1 2/2/2 3/3/3
vt 0.700000 0.911900
vt 0.726400 0.574700
vt 0.948700 0.668800
f 4/4/4 5/5/5 6/6/6
vt 0.500000 0.911900
vt 0.500000 0.647600
f 7/7/7 8/8/8 5/5/5
vt 0.400000 0.264300
vt 0.551300 0.331200
vt 0.424600 0.582100
f 9/9/9 10/10/10 11/11/11
vt 0.100000 0.500000
f 3/3/3 2/2/2 12/12/12
vt 0.700000 0.000000
vt 0.600000 0.264300
f 13/13/13 14/14/14 9/9/9
f 9/9/9 11/11/11 3/3/3
f 7/7/7 3/3/3 8/8/8
vt 0.935600 0.234600
f 15/15/15 6/6/6 5/5/5
vt -0.051300 0.668800
vt -0.064400 0.234600
vt 0.135600 0.234600
f 6/16/6 15/17/15 16/18/16
f 14/14/14 5/5/5 8/8/8
f 15/15/15 5/5/5 14/14/14
vt 0.100000 0.000000
f 13/19/13 9/9/9 16/18/16
f 9/9/9 3/3/3 16/18/16
f 6/16/6 12/12/12 2/2/2
vt -0.100000 0.823800
f 4/20/4 6/16/6 2/2/2
f 1/1/1 3/3/3 7/7/7
vt 0.200000 1.000000
f 1/21/1 4/20/4 2/2/2
vt -0.100000 0.000000
f 13/22/13 16/18/16 15/17/15
f 15/15/15 14/14/14 13/13/13
f 11/11/11 10/10/10 8/8/8
f 11/11/11 8/8/8 3/3/3
f 14/14/14 8/8/8 10/10/10
f 14/14/14 10/10/10 9/9/9
f 6/16/6 16/18/16 12/12/12
f 16/18/16 3/3/3 12/12/12
f 7/7/7 5/5/5 4/4/4
vt 0.600000 1.000000
f 1/23/1 7/7/7 4/4/4
# 28 faces, 23 coords texture

# End of File